<?xml version="1.0" encoding="UTF-8"?>
<svg id="Calque_1" data-name="Calque 1" xmlns="http://www.w3.org/2000/svg" viewBox="0 0 48 48">
  <defs>
    <style>
      .cls-1 {
        fill: #ff3c00;
      }

      .cls-2 {
        fill: #fff;
      }
    </style>
  </defs>
  <rect class="cls-2" x="-1192.48" y="-722.56" width="2322.14" height="1610.56"/>
  <g>
    <polygon class="cls-2" points="9.33 6.2 36.21 29.13 20.7 30.84 9.33 41.53 9.33 6.2"/>
    <path class="cls-1" d="M11.83,11.62l18.36,15.66-8.93.99-1.66.18-1.22,1.14-6.56,6.16V11.62M7.59,1.68c-.13,0-.26.03-.35.08-.2.1-.41.36-.41.66v43.1c0,.36.19.62.45.74.09.04.2.07.31.07.17,0,.34-.05.48-.18l13.74-12.9,18.66-2.07c.36-.06.59-.25.68-.55.08-.25-.02-.58-.28-.81L8.07,1.85c-.14-.12-.31-.16-.48-.16h0Z"/>
  </g>
</svg>